<svg width="195" height="62" viewBox="0 0 195 62" fill="none" xmlns="http://www.w3.org/2000/svg">
<path fill-rule="evenodd" clip-rule="evenodd" d="M10.5 10C10.5 8.61929 11.6193 7.5 13 7.5H16.75C18.1307 7.5 19.25 8.61929 19.25 10V30C19.25 31.3807 18.1307 32.5 16.75 32.5H13C11.6193 32.5 10.5 31.3807 10.5 30V10ZM16.75 10H13V30H16.75V10Z" fill="#00B37E"/>
<path fill-rule="evenodd" clip-rule="evenodd" d="M26.75 10C26.75 8.61929 27.8693 7.5 29.25 7.5H33C34.3807 7.5 35.5 8.61929 35.5 10V30C35.5 31.3807 34.3807 32.5 33 32.5H29.25C27.8693 32.5 26.75 31.3807 26.75 30V10ZM33 10H29.25V30H33V10Z" fill="#00B37E"/>
<path fill-rule="evenodd" clip-rule="evenodd" d="M33 12.5C33 11.8096 33.5596 11.25 34.25 11.25H38C38.663 11.25 39.2989 11.5134 39.7678 11.9822C40.2366 12.4511 40.5 13.087 40.5 13.75V26.25C40.5 26.913 40.2366 27.5489 39.7678 28.0178C39.2989 28.4866 38.663 28.75 38 28.75H34.25C33.5596 28.75 33 28.1904 33 27.5C33 26.8096 33.5596 26.25 34.25 26.25H38L38 13.75L34.25 13.75C33.5596 13.75 33 13.1904 33 12.5Z" fill="#00B37E"/>
<path fill-rule="evenodd" clip-rule="evenodd" d="M6.23223 11.9822C6.70107 11.5134 7.33696 11.25 8 11.25H11.75C12.4404 11.25 13 11.8096 13 12.5C13 13.1904 12.4404 13.75 11.75 13.75L8 13.75V26.25H11.75C12.4404 26.25 13 26.8096 13 27.5C13 28.1904 12.4404 28.75 11.75 28.75H8C7.33696 28.75 6.70108 28.4866 6.23223 28.0178C5.76339 27.5489 5.5 26.913 5.5 26.25V13.75C5.5 13.087 5.76339 12.4511 6.23223 11.9822Z" fill="#00B37E"/>
<path fill-rule="evenodd" clip-rule="evenodd" d="M16.75 20C16.75 19.3096 17.3096 18.75 18 18.75H28C28.6904 18.75 29.25 19.3096 29.25 20C29.25 20.6904 28.6904 21.25 28 21.25H18C17.3096 21.25 16.75 20.6904 16.75 20Z" fill="#00B37E"/>
<path fill-rule="evenodd" clip-rule="evenodd" d="M38 20C38 19.3096 38.5596 18.75 39.25 18.75H41.75C42.4404 18.75 43 19.3096 43 20C43 20.6904 42.4404 21.25 41.75 21.25H39.25C38.5596 21.25 38 20.6904 38 20Z" fill="#00B37E"/>
<path fill-rule="evenodd" clip-rule="evenodd" d="M3 20C3 19.3096 3.55964 18.75 4.25 18.75H6.75C7.44036 18.75 8 19.3096 8 20C8 20.6904 7.44036 21.25 6.75 21.25H4.25C3.55964 21.25 3 20.6904 3 20Z" fill="#00B37E"/>
<path d="M61.4707 9.59375V29.5H57.3828V9.59375H61.4707ZM74.4316 14.707H78V29.0078C78 30.3568 77.6992 31.5007 77.0977 32.4395C76.5052 33.3874 75.6758 34.1029 74.6094 34.5859C73.543 35.0781 72.3034 35.3242 70.8906 35.3242C70.2708 35.3242 69.6146 35.2422 68.9219 35.0781C68.2383 34.9141 67.582 34.6589 66.9531 34.3125C66.3333 33.9661 65.8138 33.5286 65.3945 33L67.1309 30.6758C67.5866 31.2044 68.1152 31.6146 68.7168 31.9062C69.3184 32.207 69.9837 32.3574 70.7129 32.3574C71.4238 32.3574 72.0254 32.2253 72.5176 31.9609C73.0098 31.7057 73.388 31.3275 73.6523 30.8262C73.9167 30.334 74.0488 29.737 74.0488 29.0352V18.125L74.4316 14.707ZM64.4785 22.2812V21.9941C64.4785 20.8639 64.6152 19.8385 64.8887 18.918C65.1712 17.9883 65.5677 17.1908 66.0781 16.5254C66.5977 15.86 67.2266 15.3451 67.9648 14.9805C68.7031 14.6159 69.5371 14.4336 70.4668 14.4336C71.4512 14.4336 72.276 14.6159 72.9414 14.9805C73.6068 15.3451 74.1536 15.8646 74.582 16.5391C75.0104 17.2044 75.3431 17.9928 75.5801 18.9043C75.8262 19.8066 76.0176 20.7956 76.1543 21.8711V22.5C76.0176 23.5299 75.8125 24.487 75.5391 25.3711C75.2656 26.2552 74.9056 27.0299 74.459 27.6953C74.0124 28.3516 73.4564 28.862 72.791 29.2266C72.1348 29.5911 71.3509 29.7734 70.4395 29.7734C69.528 29.7734 68.7031 29.5866 67.9648 29.2129C67.2357 28.8392 66.6113 28.3151 66.0918 27.6406C65.5723 26.9661 65.1712 26.1732 64.8887 25.2617C64.6152 24.3503 64.4785 23.3568 64.4785 22.2812ZM68.416 21.9941V22.2812C68.416 22.8919 68.4753 23.4616 68.5938 23.9902C68.7122 24.5189 68.8945 24.9883 69.1406 25.3984C69.3958 25.7995 69.7103 26.1139 70.084 26.3418C70.4668 26.5605 70.918 26.6699 71.4375 26.6699C72.1576 26.6699 72.7454 26.5195 73.2012 26.2188C73.6569 25.9089 73.9987 25.485 74.2266 24.9473C74.4544 24.4095 74.5866 23.7897 74.623 23.0879V21.2969C74.6048 20.7227 74.5273 20.2077 74.3906 19.752C74.2539 19.2871 74.0625 18.8906 73.8164 18.5625C73.5703 18.2344 73.2513 17.9792 72.8594 17.7969C72.4674 17.6146 72.0026 17.5234 71.4648 17.5234C70.9453 17.5234 70.4941 17.6419 70.1113 17.8789C69.7376 18.1068 69.4232 18.4212 69.168 18.8223C68.9219 19.2233 68.735 19.6973 68.6074 20.2441C68.4798 20.7819 68.416 21.3652 68.416 21.9941ZM84.918 17.8652V29.5H80.9805V14.707H84.6719L84.918 17.8652ZM84.3438 21.584H83.2773C83.2773 20.4902 83.4186 19.5059 83.7012 18.6309C83.9837 17.7467 84.3802 16.9948 84.8906 16.375C85.401 15.7461 86.0072 15.2676 86.709 14.9395C87.4199 14.6022 88.2129 14.4336 89.0879 14.4336C89.7806 14.4336 90.4141 14.5339 90.9883 14.7344C91.5625 14.9349 92.0547 15.2539 92.4648 15.6914C92.8841 16.1289 93.2031 16.7077 93.4219 17.4277C93.6497 18.1478 93.7637 19.0273 93.7637 20.0664V29.5H89.7988V20.0527C89.7988 19.3965 89.7077 18.8861 89.5254 18.5215C89.3431 18.1569 89.0742 17.9017 88.7188 17.7559C88.3724 17.6009 87.944 17.5234 87.4336 17.5234C86.9049 17.5234 86.4447 17.6283 86.0527 17.8379C85.6699 18.0475 85.3509 18.3392 85.0957 18.7129C84.8496 19.0775 84.6628 19.5059 84.5352 19.998C84.4076 20.4902 84.3438 21.0189 84.3438 21.584ZM100.914 14.707V29.5H96.9629V14.707H100.914ZM96.7168 10.8516C96.7168 10.2773 96.9173 9.80339 97.3184 9.42969C97.7194 9.05599 98.2572 8.86914 98.9316 8.86914C99.597 8.86914 100.13 9.05599 100.531 9.42969C100.941 9.80339 101.146 10.2773 101.146 10.8516C101.146 11.4258 100.941 11.8997 100.531 12.2734C100.13 12.6471 99.597 12.834 98.9316 12.834C98.2572 12.834 97.7194 12.6471 97.3184 12.2734C96.9173 11.8997 96.7168 11.4258 96.7168 10.8516ZM111.414 14.707V17.4961H102.801V14.707H111.414ZM104.934 11.0566H108.871V25.043C108.871 25.4714 108.926 25.7995 109.035 26.0273C109.154 26.2552 109.327 26.4147 109.555 26.5059C109.783 26.5879 110.07 26.6289 110.416 26.6289C110.662 26.6289 110.881 26.6198 111.072 26.6016C111.273 26.5742 111.441 26.5469 111.578 26.5195L111.592 29.418C111.255 29.5273 110.89 29.6139 110.498 29.6777C110.106 29.7415 109.673 29.7734 109.199 29.7734C108.333 29.7734 107.577 29.6322 106.93 29.3496C106.292 29.0579 105.799 28.5931 105.453 27.9551C105.107 27.3171 104.934 26.4785 104.934 25.4395V11.0566ZM120.465 29.7734C119.316 29.7734 118.286 29.5911 117.375 29.2266C116.464 28.8529 115.689 28.3379 115.051 27.6816C114.422 27.0254 113.939 26.2643 113.602 25.3984C113.264 24.5234 113.096 23.5938 113.096 22.6094V22.0625C113.096 20.9414 113.255 19.916 113.574 18.9863C113.893 18.0566 114.349 17.25 114.941 16.5664C115.543 15.8828 116.272 15.3587 117.129 14.9941C117.986 14.6204 118.952 14.4336 120.027 14.4336C121.076 14.4336 122.005 14.6068 122.816 14.9531C123.628 15.2995 124.307 15.7917 124.854 16.4297C125.41 17.0677 125.829 17.8333 126.111 18.7266C126.394 19.6107 126.535 20.5951 126.535 21.6797V23.3203H114.777V20.6953H122.666V20.3945C122.666 19.8477 122.566 19.36 122.365 18.9316C122.174 18.4941 121.882 18.1478 121.49 17.8926C121.098 17.6374 120.597 17.5098 119.986 17.5098C119.467 17.5098 119.02 17.6237 118.646 17.8516C118.273 18.0794 117.967 18.3984 117.73 18.8086C117.503 19.2188 117.329 19.7018 117.211 20.2578C117.102 20.8047 117.047 21.4062 117.047 22.0625V22.6094C117.047 23.2018 117.129 23.7487 117.293 24.25C117.466 24.7513 117.708 25.1842 118.018 25.5488C118.337 25.9134 118.719 26.196 119.166 26.3965C119.622 26.597 120.137 26.6973 120.711 26.6973C121.422 26.6973 122.083 26.5605 122.693 26.2871C123.313 26.0046 123.846 25.5807 124.293 25.0156L126.207 27.0938C125.897 27.5404 125.473 27.9688 124.936 28.3789C124.407 28.7891 123.769 29.1263 123.021 29.3906C122.274 29.6458 121.422 29.7734 120.465 29.7734ZM151.773 19.0957V26.9844C151.464 27.3581 150.985 27.7637 150.338 28.2012C149.691 28.6296 148.857 28.9987 147.836 29.3086C146.815 29.6185 145.58 29.7734 144.131 29.7734C142.846 29.7734 141.674 29.5638 140.617 29.1445C139.56 28.7161 138.648 28.0918 137.883 27.2715C137.126 26.4512 136.543 25.4486 136.133 24.2637C135.723 23.0697 135.518 21.707 135.518 20.1758V18.9316C135.518 17.4004 135.714 16.0378 136.105 14.8438C136.507 13.6497 137.076 12.6426 137.814 11.8223C138.553 11.002 139.432 10.3776 140.453 9.94922C141.474 9.52083 142.609 9.30664 143.857 9.30664C145.589 9.30664 147.011 9.58919 148.123 10.1543C149.235 10.7103 150.083 11.485 150.666 12.4785C151.258 13.4629 151.623 14.5931 151.76 15.8691H147.781C147.681 15.1947 147.49 14.6068 147.207 14.1055C146.924 13.6042 146.519 13.2122 145.99 12.9297C145.471 12.6471 144.796 12.5059 143.967 12.5059C143.283 12.5059 142.673 12.6471 142.135 12.9297C141.606 13.2031 141.16 13.6087 140.795 14.1465C140.43 14.6842 140.152 15.3496 139.961 16.1426C139.77 16.9355 139.674 17.8561 139.674 18.9043V20.1758C139.674 21.2148 139.774 22.1354 139.975 22.9375C140.175 23.7305 140.471 24.4004 140.863 24.9473C141.264 25.485 141.757 25.8906 142.34 26.1641C142.923 26.4375 143.602 26.5742 144.377 26.5742C145.024 26.5742 145.562 26.5195 145.99 26.4102C146.428 26.3008 146.779 26.1686 147.043 26.0137C147.316 25.8496 147.526 25.6947 147.672 25.5488V22.0215H143.926V19.0957H151.773ZM159.225 27.832L163.148 14.707H167.373L161.426 31.7285C161.298 32.1022 161.125 32.5033 160.906 32.9316C160.697 33.36 160.41 33.7656 160.045 34.1484C159.689 34.5404 159.238 34.8594 158.691 35.1055C158.154 35.3516 157.493 35.4746 156.709 35.4746C156.335 35.4746 156.03 35.4518 155.793 35.4062C155.556 35.3607 155.273 35.2969 154.945 35.2148V32.3301C155.046 32.3301 155.15 32.3301 155.26 32.3301C155.369 32.3392 155.474 32.3438 155.574 32.3438C156.094 32.3438 156.518 32.2845 156.846 32.166C157.174 32.0475 157.438 31.8652 157.639 31.6191C157.839 31.3822 157.999 31.0723 158.117 30.6895L159.225 27.832ZM157.584 14.707L160.797 25.4258L161.357 29.5957L158.678 29.8828L153.359 14.707H157.584ZM172.883 17.7695V29.5H168.932V14.707H172.637L172.883 17.7695ZM172.336 21.584H171.242C171.242 20.554 171.365 19.6061 171.611 18.7402C171.867 17.8652 172.236 17.1087 172.719 16.4707C173.211 15.8236 173.817 15.3223 174.537 14.9668C175.257 14.6113 176.091 14.4336 177.039 14.4336C177.695 14.4336 178.297 14.5339 178.844 14.7344C179.391 14.9258 179.86 15.2311 180.252 15.6504C180.653 16.0605 180.963 16.5983 181.182 17.2637C181.4 17.9199 181.51 18.7083 181.51 19.6289V29.5H177.572V20.0664C177.572 19.3919 177.481 18.8724 177.299 18.5078C177.117 18.1432 176.857 17.888 176.52 17.7422C176.191 17.5964 175.795 17.5234 175.33 17.5234C174.82 17.5234 174.373 17.6283 173.99 17.8379C173.617 18.0475 173.307 18.3392 173.061 18.7129C172.814 19.0775 172.632 19.5059 172.514 19.998C172.395 20.4902 172.336 21.0189 172.336 21.584ZM181.141 21.1328L179.732 21.3105C179.732 20.3444 179.851 19.4466 180.088 18.6172C180.334 17.7878 180.694 17.0586 181.168 16.4297C181.651 15.8008 182.248 15.3132 182.959 14.9668C183.67 14.6113 184.49 14.4336 185.42 14.4336C186.131 14.4336 186.778 14.5384 187.361 14.748C187.945 14.9486 188.441 15.2721 188.852 15.7188C189.271 16.1562 189.59 16.7305 189.809 17.4414C190.036 18.1523 190.15 19.0228 190.15 20.0527V29.5H186.199V20.0527C186.199 19.3691 186.108 18.8496 185.926 18.4941C185.753 18.1296 185.497 17.8789 185.16 17.7422C184.832 17.5964 184.44 17.5234 183.984 17.5234C183.51 17.5234 183.096 17.6191 182.74 17.8105C182.385 17.9928 182.089 18.248 181.852 18.5762C181.615 18.9043 181.437 19.2871 181.318 19.7246C181.2 20.153 181.141 20.6224 181.141 21.1328Z" fill="white"/>
<path d="M4.8457 46.0469V56H3.54688V46.0469H4.8457ZM8.04492 46.0469V47.127H0.354492V46.0469H8.04492ZM10.0752 49.7656V56H8.81055V48.6035H10.041L10.0752 49.7656ZM12.3857 48.5625L12.3789 49.7383C12.2741 49.7155 12.1738 49.7018 12.0781 49.6973C11.987 49.6882 11.8822 49.6836 11.7637 49.6836C11.472 49.6836 11.2145 49.7292 10.9912 49.8203C10.7679 49.9115 10.5788 50.0391 10.4238 50.2031C10.2689 50.3672 10.1458 50.5632 10.0547 50.791C9.9681 51.0143 9.91113 51.2604 9.88379 51.5293L9.52832 51.7344C9.52832 51.2878 9.57161 50.8685 9.6582 50.4766C9.74935 50.0846 9.88835 49.7383 10.0752 49.4375C10.262 49.1322 10.499 48.8952 10.7861 48.7266C11.0778 48.5534 11.4242 48.4668 11.8252 48.4668C11.9163 48.4668 12.0212 48.4782 12.1396 48.501C12.2581 48.5192 12.3402 48.5397 12.3857 48.5625ZM16.4873 56.1367C15.9723 56.1367 15.5052 56.0501 15.0859 55.877C14.6712 55.6992 14.3135 55.4508 14.0127 55.1318C13.7165 54.8128 13.4886 54.4346 13.3291 53.9971C13.1696 53.5596 13.0898 53.0811 13.0898 52.5615V52.2744C13.0898 51.6729 13.1787 51.1374 13.3564 50.668C13.5342 50.194 13.7757 49.793 14.0811 49.4648C14.3864 49.1367 14.7327 48.8883 15.1201 48.7197C15.5075 48.5511 15.9085 48.4668 16.3232 48.4668C16.8519 48.4668 17.3076 48.5579 17.6904 48.7402C18.0778 48.9225 18.3945 49.1777 18.6406 49.5059C18.8867 49.8294 19.069 50.2122 19.1875 50.6543C19.306 51.0918 19.3652 51.5703 19.3652 52.0898V52.6572H13.8418V51.625H18.1006V51.5293C18.0824 51.2012 18.014 50.8822 17.8955 50.5723C17.7816 50.2624 17.5993 50.0072 17.3486 49.8066C17.098 49.6061 16.7562 49.5059 16.3232 49.5059C16.0361 49.5059 15.7718 49.5674 15.5303 49.6904C15.2887 49.8089 15.0814 49.9867 14.9082 50.2236C14.735 50.4606 14.6006 50.75 14.5049 51.0918C14.4092 51.4336 14.3613 51.8278 14.3613 52.2744V52.5615C14.3613 52.9124 14.4092 53.2428 14.5049 53.5527C14.6051 53.8581 14.7487 54.127 14.9355 54.3594C15.127 54.5918 15.3571 54.7741 15.626 54.9062C15.8994 55.0384 16.2093 55.1045 16.5557 55.1045C17.0023 55.1045 17.3805 55.0133 17.6904 54.8311C18.0003 54.6488 18.2715 54.4049 18.5039 54.0996L19.2695 54.708C19.11 54.9495 18.9072 55.1797 18.6611 55.3984C18.415 55.6172 18.112 55.7949 17.752 55.9316C17.3965 56.0684 16.9749 56.1367 16.4873 56.1367ZM22.2158 48.6035V56H20.9443V48.6035H22.2158ZM20.8486 46.6416C20.8486 46.4365 20.9102 46.2633 21.0332 46.1221C21.1608 45.9808 21.3477 45.9102 21.5938 45.9102C21.8353 45.9102 22.0199 45.9808 22.1475 46.1221C22.2796 46.2633 22.3457 46.4365 22.3457 46.6416C22.3457 46.8376 22.2796 47.0062 22.1475 47.1475C22.0199 47.2842 21.8353 47.3525 21.5938 47.3525C21.3477 47.3525 21.1608 47.2842 21.0332 47.1475C20.9102 47.0062 20.8486 46.8376 20.8486 46.6416ZM25.5107 50.1826V56H24.2461V48.6035H25.4424L25.5107 50.1826ZM25.21 52.0215L24.6836 52.001C24.6882 51.4951 24.7633 51.028 24.9092 50.5996C25.055 50.1667 25.2601 49.7907 25.5244 49.4717C25.7887 49.1527 26.1032 48.9066 26.4678 48.7334C26.8369 48.5557 27.2448 48.4668 27.6914 48.4668C28.056 48.4668 28.3841 48.5169 28.6758 48.6172C28.9674 48.7129 29.2158 48.8678 29.4209 49.082C29.6305 49.2962 29.79 49.5742 29.8994 49.916C30.0088 50.2533 30.0635 50.6657 30.0635 51.1533V56H28.792V51.1396C28.792 50.7523 28.735 50.4424 28.6211 50.21C28.5072 49.973 28.3408 49.8021 28.1221 49.6973C27.9033 49.5879 27.6344 49.5332 27.3154 49.5332C27.001 49.5332 26.7139 49.5993 26.4541 49.7314C26.1989 49.8636 25.9779 50.0459 25.791 50.2783C25.6087 50.5107 25.4652 50.7773 25.3604 51.0781C25.2601 51.3743 25.21 51.6888 25.21 52.0215ZM35.0537 56.1367C34.5387 56.1367 34.0716 56.0501 33.6523 55.877C33.2376 55.6992 32.8799 55.4508 32.5791 55.1318C32.2829 54.8128 32.055 54.4346 31.8955 53.9971C31.736 53.5596 31.6562 53.0811 31.6562 52.5615V52.2744C31.6562 51.6729 31.7451 51.1374 31.9229 50.668C32.1006 50.194 32.3421 49.793 32.6475 49.4648C32.9528 49.1367 33.2992 48.8883 33.6865 48.7197C34.0739 48.5511 34.4749 48.4668 34.8896 48.4668C35.4183 48.4668 35.874 48.5579 36.2568 48.7402C36.6442 48.9225 36.9609 49.1777 37.207 49.5059C37.4531 49.8294 37.6354 50.2122 37.7539 50.6543C37.8724 51.0918 37.9316 51.5703 37.9316 52.0898V52.6572H32.4082V51.625H36.667V51.5293C36.6488 51.2012 36.5804 50.8822 36.4619 50.5723C36.348 50.2624 36.1657 50.0072 35.915 49.8066C35.6644 49.6061 35.3226 49.5059 34.8896 49.5059C34.6025 49.5059 34.3382 49.5674 34.0967 49.6904C33.8551 49.8089 33.6478 49.9867 33.4746 50.2236C33.3014 50.4606 33.167 50.75 33.0713 51.0918C32.9756 51.4336 32.9277 51.8278 32.9277 52.2744V52.5615C32.9277 52.9124 32.9756 53.2428 33.0713 53.5527C33.1715 53.8581 33.3151 54.127 33.502 54.3594C33.6934 54.5918 33.9235 54.7741 34.1924 54.9062C34.4658 55.0384 34.7757 55.1045 35.1221 55.1045C35.5687 55.1045 35.9469 55.0133 36.2568 54.8311C36.5667 54.6488 36.8379 54.4049 37.0703 54.0996L37.8359 54.708C37.6764 54.9495 37.4736 55.1797 37.2275 55.3984C36.9814 55.6172 36.6784 55.7949 36.3184 55.9316C35.9629 56.0684 35.5413 56.1367 35.0537 56.1367ZM47.1875 54.0381C47.1875 53.8558 47.1465 53.6872 47.0645 53.5322C46.987 53.3727 46.8252 53.2292 46.5791 53.1016C46.3376 52.9694 45.973 52.8555 45.4854 52.7598C45.0752 52.6732 44.7038 52.5706 44.3711 52.4521C44.043 52.3337 43.7627 52.1901 43.5303 52.0215C43.3024 51.8529 43.127 51.6546 43.0039 51.4268C42.8809 51.1989 42.8193 50.9323 42.8193 50.627C42.8193 50.3353 42.8831 50.0596 43.0107 49.7998C43.1429 49.54 43.3275 49.3099 43.5645 49.1094C43.806 48.9089 44.0954 48.7516 44.4326 48.6377C44.7699 48.5238 45.1458 48.4668 45.5605 48.4668C46.153 48.4668 46.6589 48.5716 47.0781 48.7812C47.4974 48.9909 47.8187 49.2712 48.042 49.6221C48.2653 49.9684 48.377 50.3535 48.377 50.7773H47.1123C47.1123 50.5723 47.0508 50.374 46.9277 50.1826C46.8092 49.9867 46.6338 49.8249 46.4014 49.6973C46.1735 49.5697 45.8932 49.5059 45.5605 49.5059C45.2096 49.5059 44.9248 49.5605 44.7061 49.6699C44.4919 49.7747 44.3346 49.9092 44.2344 50.0732C44.1387 50.2373 44.0908 50.4105 44.0908 50.5928C44.0908 50.7295 44.1136 50.8525 44.1592 50.9619C44.2093 51.0667 44.2959 51.1647 44.4189 51.2559C44.542 51.3424 44.7152 51.4245 44.9385 51.502C45.1618 51.5794 45.4466 51.6569 45.793 51.7344C46.3991 51.8711 46.8981 52.0352 47.29 52.2266C47.682 52.418 47.9736 52.6527 48.165 52.9307C48.3564 53.2087 48.4521 53.5459 48.4521 53.9424C48.4521 54.266 48.3838 54.5622 48.2471 54.8311C48.1149 55.0999 47.9212 55.3324 47.666 55.5283C47.4154 55.7197 47.1146 55.8701 46.7637 55.9795C46.4173 56.0843 46.0277 56.1367 45.5947 56.1367C44.943 56.1367 44.3916 56.0205 43.9404 55.7881C43.4893 55.5557 43.1475 55.2549 42.915 54.8857C42.6826 54.5166 42.5664 54.127 42.5664 53.7168H43.8379C43.8561 54.0632 43.9564 54.3389 44.1387 54.5439C44.321 54.7445 44.5443 54.888 44.8086 54.9746C45.0729 55.0566 45.335 55.0977 45.5947 55.0977C45.9411 55.0977 46.2305 55.0521 46.4629 54.9609C46.6999 54.8698 46.8799 54.7445 47.0029 54.585C47.126 54.4255 47.1875 54.2432 47.1875 54.0381ZM54.6387 54.291V48.6035H55.9102V56H54.7002L54.6387 54.291ZM54.8779 52.7324L55.4043 52.7188C55.4043 53.2109 55.3519 53.6667 55.2471 54.0859C55.1468 54.5007 54.9827 54.8607 54.7549 55.166C54.527 55.4714 54.2285 55.7106 53.8594 55.8838C53.4902 56.0524 53.0413 56.1367 52.5127 56.1367C52.1527 56.1367 51.8223 56.0843 51.5215 55.9795C51.2253 55.8747 50.9701 55.7129 50.7559 55.4941C50.5417 55.2754 50.3753 54.9906 50.2568 54.6396C50.1429 54.2887 50.0859 53.8672 50.0859 53.375V48.6035H51.3506V53.3887C51.3506 53.7214 51.387 53.9971 51.46 54.2158C51.5374 54.43 51.64 54.6009 51.7676 54.7285C51.8997 54.8516 52.0456 54.9382 52.2051 54.9883C52.3691 55.0384 52.5378 55.0635 52.7109 55.0635C53.2487 55.0635 53.6748 54.9609 53.9893 54.7559C54.3037 54.5462 54.5293 54.266 54.666 53.915C54.8073 53.5596 54.8779 53.1654 54.8779 52.7324ZM62.1992 54.7354V50.9277C62.1992 50.6361 62.14 50.3831 62.0215 50.1689C61.9076 49.9502 61.7344 49.7816 61.502 49.6631C61.2695 49.5446 60.9824 49.4854 60.6406 49.4854C60.3216 49.4854 60.0413 49.54 59.7998 49.6494C59.5628 49.7588 59.376 49.9023 59.2393 50.0801C59.1071 50.2578 59.041 50.4492 59.041 50.6543H57.7764C57.7764 50.39 57.8447 50.1279 57.9814 49.8682C58.1182 49.6084 58.3141 49.3737 58.5693 49.1641C58.8291 48.9499 59.139 48.7812 59.499 48.6582C59.8636 48.5306 60.2692 48.4668 60.7158 48.4668C61.2536 48.4668 61.7275 48.5579 62.1377 48.7402C62.5524 48.9225 62.876 49.1982 63.1084 49.5674C63.3454 49.932 63.4639 50.39 63.4639 50.9414V54.3867C63.4639 54.6328 63.4844 54.8949 63.5254 55.1729C63.571 55.4508 63.637 55.6901 63.7236 55.8906V56H62.4043C62.3405 55.8542 62.2904 55.6605 62.2539 55.4189C62.2174 55.1729 62.1992 54.945 62.1992 54.7354ZM62.418 51.5156L62.4316 52.4043H61.1533C60.7933 52.4043 60.472 52.4339 60.1895 52.4932C59.9069 52.5479 59.6699 52.6322 59.4785 52.7461C59.2871 52.86 59.1413 53.0036 59.041 53.1768C58.9408 53.3454 58.8906 53.5436 58.8906 53.7715C58.8906 54.0039 58.943 54.2158 59.0479 54.4072C59.1527 54.5986 59.3099 54.7513 59.5195 54.8652C59.7337 54.9746 59.9958 55.0293 60.3057 55.0293C60.693 55.0293 61.0348 54.9473 61.3311 54.7832C61.6273 54.6191 61.862 54.4186 62.0352 54.1816C62.2129 53.9447 62.3086 53.7145 62.3223 53.4912L62.8623 54.0996C62.8304 54.291 62.7438 54.5029 62.6025 54.7354C62.4613 54.9678 62.2721 55.1911 62.0352 55.4053C61.8027 55.6149 61.5247 55.7904 61.2012 55.9316C60.8822 56.0684 60.5221 56.1367 60.1211 56.1367C59.6198 56.1367 59.18 56.0387 58.8018 55.8428C58.4281 55.6468 58.1364 55.3848 57.9268 55.0566C57.7217 54.724 57.6191 54.3525 57.6191 53.9424C57.6191 53.5459 57.6966 53.1973 57.8516 52.8965C58.0065 52.5911 58.2298 52.3382 58.5215 52.1377C58.8132 51.9326 59.1641 51.7777 59.5742 51.6729C59.9844 51.568 60.4424 51.5156 60.9482 51.5156H62.418ZM70.1836 50.0732V56H68.9121V48.6035H70.1152L70.1836 50.0732ZM69.9238 52.0215L69.3359 52.001C69.3405 51.4951 69.4066 51.028 69.5342 50.5996C69.6618 50.1667 69.8509 49.7907 70.1016 49.4717C70.3522 49.1527 70.6644 48.9066 71.0381 48.7334C71.4118 48.5557 71.8447 48.4668 72.3369 48.4668C72.6833 48.4668 73.0023 48.5169 73.2939 48.6172C73.5856 48.7129 73.8385 48.8656 74.0527 49.0752C74.2669 49.2848 74.4333 49.5537 74.5518 49.8818C74.6702 50.21 74.7295 50.6064 74.7295 51.0713V56H73.4648V51.1328C73.4648 50.7454 73.3988 50.4355 73.2666 50.2031C73.139 49.9707 72.9567 49.8021 72.7197 49.6973C72.4827 49.5879 72.2048 49.5332 71.8857 49.5332C71.512 49.5332 71.1999 49.5993 70.9492 49.7314C70.6986 49.8636 70.498 50.0459 70.3477 50.2783C70.1973 50.5107 70.0879 50.7773 70.0195 51.0781C69.9557 51.3743 69.9238 51.6888 69.9238 52.0215ZM74.7158 51.3242L73.8682 51.584C73.8727 51.1784 73.9388 50.7887 74.0664 50.415C74.1986 50.0413 74.3877 49.7087 74.6338 49.417C74.8844 49.1253 75.1921 48.8952 75.5566 48.7266C75.9212 48.5534 76.3382 48.4668 76.8076 48.4668C77.2041 48.4668 77.555 48.5192 77.8604 48.624C78.1702 48.7288 78.43 48.8906 78.6396 49.1094C78.8538 49.3236 79.0156 49.5993 79.125 49.9365C79.2344 50.2738 79.2891 50.6748 79.2891 51.1396V56H78.0176V51.126C78.0176 50.7113 77.9515 50.39 77.8193 50.1621C77.6917 49.9297 77.5094 49.7679 77.2725 49.6768C77.04 49.5811 76.762 49.5332 76.4385 49.5332C76.1605 49.5332 75.9144 49.5811 75.7002 49.6768C75.486 49.7725 75.306 49.9046 75.1602 50.0732C75.0143 50.2373 74.9027 50.4264 74.8252 50.6406C74.7523 50.8548 74.7158 51.0827 74.7158 51.3242ZM84.2725 56.1367C83.7575 56.1367 83.2904 56.0501 82.8711 55.877C82.4564 55.6992 82.0986 55.4508 81.7979 55.1318C81.5016 54.8128 81.2738 54.4346 81.1143 53.9971C80.9548 53.5596 80.875 53.0811 80.875 52.5615V52.2744C80.875 51.6729 80.9639 51.1374 81.1416 50.668C81.3193 50.194 81.5609 49.793 81.8662 49.4648C82.1715 49.1367 82.5179 48.8883 82.9053 48.7197C83.2926 48.5511 83.6937 48.4668 84.1084 48.4668C84.637 48.4668 85.0928 48.5579 85.4756 48.7402C85.863 48.9225 86.1797 49.1777 86.4258 49.5059C86.6719 49.8294 86.8542 50.2122 86.9727 50.6543C87.0911 51.0918 87.1504 51.5703 87.1504 52.0898V52.6572H81.627V51.625H85.8857V51.5293C85.8675 51.2012 85.7992 50.8822 85.6807 50.5723C85.5667 50.2624 85.3844 50.0072 85.1338 49.8066C84.8831 49.6061 84.5413 49.5059 84.1084 49.5059C83.8213 49.5059 83.557 49.5674 83.3154 49.6904C83.0739 49.8089 82.8665 49.9867 82.6934 50.2236C82.5202 50.4606 82.3857 50.75 82.29 51.0918C82.1943 51.4336 82.1465 51.8278 82.1465 52.2744V52.5615C82.1465 52.9124 82.1943 53.2428 82.29 53.5527C82.3903 53.8581 82.5339 54.127 82.7207 54.3594C82.9121 54.5918 83.1423 54.7741 83.4111 54.9062C83.6846 55.0384 83.9945 55.1045 84.3408 55.1045C84.7874 55.1045 85.1657 55.0133 85.4756 54.8311C85.7855 54.6488 86.0566 54.4049 86.2891 54.0996L87.0547 54.708C86.8952 54.9495 86.6924 55.1797 86.4463 55.3984C86.2002 55.6172 85.8971 55.7949 85.5371 55.9316C85.1816 56.0684 84.7601 56.1367 84.2725 56.1367ZM89.8916 50.1826V56H88.627V48.6035H89.8232L89.8916 50.1826ZM89.5908 52.0215L89.0645 52.001C89.069 51.4951 89.1442 51.028 89.29 50.5996C89.4359 50.1667 89.641 49.7907 89.9053 49.4717C90.1696 49.1527 90.484 48.9066 90.8486 48.7334C91.2178 48.5557 91.6257 48.4668 92.0723 48.4668C92.4368 48.4668 92.765 48.5169 93.0566 48.6172C93.3483 48.7129 93.5967 48.8678 93.8018 49.082C94.0114 49.2962 94.1709 49.5742 94.2803 49.916C94.3896 50.2533 94.4443 50.6657 94.4443 51.1533V56H93.1729V51.1396C93.1729 50.7523 93.1159 50.4424 93.002 50.21C92.888 49.973 92.7217 49.8021 92.5029 49.6973C92.2842 49.5879 92.0153 49.5332 91.6963 49.5332C91.3818 49.5332 91.0947 49.5993 90.835 49.7314C90.5798 49.8636 90.3587 50.0459 90.1719 50.2783C89.9896 50.5107 89.846 50.7773 89.7412 51.0781C89.641 51.3743 89.5908 51.6888 89.5908 52.0215ZM99.4619 48.6035V49.5742H95.4629V48.6035H99.4619ZM96.8164 46.8057H98.0811V54.168C98.0811 54.4186 98.1198 54.6077 98.1973 54.7354C98.2747 54.863 98.375 54.9473 98.498 54.9883C98.6211 55.0293 98.7533 55.0498 98.8945 55.0498C98.9993 55.0498 99.1087 55.0407 99.2227 55.0225C99.3411 54.9997 99.43 54.9814 99.4893 54.9678L99.4961 56C99.3958 56.0319 99.2637 56.0615 99.0996 56.0889C98.9401 56.1208 98.7464 56.1367 98.5186 56.1367C98.2087 56.1367 97.9238 56.0752 97.6641 55.9521C97.4043 55.8291 97.1969 55.624 97.042 55.3369C96.8916 55.0452 96.8164 54.6533 96.8164 54.1611V46.8057ZM104.015 56.1367C103.5 56.1367 103.033 56.0501 102.613 55.877C102.199 55.6992 101.841 55.4508 101.54 55.1318C101.244 54.8128 101.016 54.4346 100.856 53.9971C100.697 53.5596 100.617 53.0811 100.617 52.5615V52.2744C100.617 51.6729 100.706 51.1374 100.884 50.668C101.062 50.194 101.303 49.793 101.608 49.4648C101.914 49.1367 102.26 48.8883 102.647 48.7197C103.035 48.5511 103.436 48.4668 103.851 48.4668C104.379 48.4668 104.835 48.5579 105.218 48.7402C105.605 48.9225 105.922 49.1777 106.168 49.5059C106.414 49.8294 106.596 50.2122 106.715 50.6543C106.833 51.0918 106.893 51.5703 106.893 52.0898V52.6572H101.369V51.625H105.628V51.5293C105.61 51.2012 105.541 50.8822 105.423 50.5723C105.309 50.2624 105.127 50.0072 104.876 49.8066C104.625 49.6061 104.284 49.5059 103.851 49.5059C103.563 49.5059 103.299 49.5674 103.058 49.6904C102.816 49.8089 102.609 49.9867 102.436 50.2236C102.262 50.4606 102.128 50.75 102.032 51.0918C101.937 51.4336 101.889 51.8278 101.889 52.2744V52.5615C101.889 52.9124 101.937 53.2428 102.032 53.5527C102.132 53.8581 102.276 54.127 102.463 54.3594C102.654 54.5918 102.884 54.7741 103.153 54.9062C103.427 55.0384 103.737 55.1045 104.083 55.1045C104.53 55.1045 104.908 55.0133 105.218 54.8311C105.528 54.6488 105.799 54.4049 106.031 54.0996L106.797 54.708C106.637 54.9495 106.435 55.1797 106.188 55.3984C105.942 55.6172 105.639 55.7949 105.279 55.9316C104.924 56.0684 104.502 56.1367 104.015 56.1367ZM114.911 56.1367C114.396 56.1367 113.929 56.0501 113.51 55.877C113.095 55.6992 112.737 55.4508 112.437 55.1318C112.14 54.8128 111.912 54.4346 111.753 53.9971C111.593 53.5596 111.514 53.0811 111.514 52.5615V52.2744C111.514 51.6729 111.603 51.1374 111.78 50.668C111.958 50.194 112.2 49.793 112.505 49.4648C112.81 49.1367 113.157 48.8883 113.544 48.7197C113.931 48.5511 114.332 48.4668 114.747 48.4668C115.276 48.4668 115.731 48.5579 116.114 48.7402C116.502 48.9225 116.818 49.1777 117.064 49.5059C117.311 49.8294 117.493 50.2122 117.611 50.6543C117.73 51.0918 117.789 51.5703 117.789 52.0898V52.6572H112.266V51.625H116.524V51.5293C116.506 51.2012 116.438 50.8822 116.319 50.5723C116.205 50.2624 116.023 50.0072 115.772 49.8066C115.522 49.6061 115.18 49.5059 114.747 49.5059C114.46 49.5059 114.196 49.5674 113.954 49.6904C113.713 49.8089 113.505 49.9867 113.332 50.2236C113.159 50.4606 113.024 50.75 112.929 51.0918C112.833 51.4336 112.785 51.8278 112.785 52.2744V52.5615C112.785 52.9124 112.833 53.2428 112.929 53.5527C113.029 53.8581 113.173 54.127 113.359 54.3594C113.551 54.5918 113.781 54.7741 114.05 54.9062C114.323 55.0384 114.633 55.1045 114.979 55.1045C115.426 55.1045 115.804 55.0133 116.114 54.8311C116.424 54.6488 116.695 54.4049 116.928 54.0996L117.693 54.708C117.534 54.9495 117.331 55.1797 117.085 55.3984C116.839 55.6172 116.536 55.7949 116.176 55.9316C115.82 56.0684 115.399 56.1367 114.911 56.1367ZM122.403 52.3838V52.2266C122.403 51.6934 122.481 51.1989 122.636 50.7432C122.791 50.2829 123.014 49.8841 123.306 49.5469C123.597 49.2051 123.951 48.9408 124.365 48.7539C124.78 48.5625 125.245 48.4668 125.76 48.4668C126.279 48.4668 126.746 48.5625 127.161 48.7539C127.58 48.9408 127.936 49.2051 128.228 49.5469C128.524 49.8841 128.749 50.2829 128.904 50.7432C129.059 51.1989 129.137 51.6934 129.137 52.2266V52.3838C129.137 52.917 129.059 53.4115 128.904 53.8672C128.749 54.3229 128.524 54.7217 128.228 55.0635C127.936 55.4007 127.583 55.665 127.168 55.8564C126.758 56.0433 126.293 56.1367 125.773 56.1367C125.254 56.1367 124.787 56.0433 124.372 55.8564C123.957 55.665 123.602 55.4007 123.306 55.0635C123.014 54.7217 122.791 54.3229 122.636 53.8672C122.481 53.4115 122.403 52.917 122.403 52.3838ZM123.668 52.2266V52.3838C123.668 52.7529 123.711 53.1016 123.798 53.4297C123.884 53.7533 124.014 54.0404 124.188 54.291C124.365 54.5417 124.586 54.7399 124.851 54.8857C125.115 55.027 125.423 55.0977 125.773 55.0977C126.12 55.0977 126.423 55.027 126.683 54.8857C126.947 54.7399 127.166 54.5417 127.339 54.291C127.512 54.0404 127.642 53.7533 127.729 53.4297C127.82 53.1016 127.865 52.7529 127.865 52.3838V52.2266C127.865 51.862 127.82 51.5179 127.729 51.1943C127.642 50.8662 127.51 50.5768 127.332 50.3262C127.159 50.071 126.94 49.8704 126.676 49.7246C126.416 49.5788 126.111 49.5059 125.76 49.5059C125.413 49.5059 125.108 49.5788 124.844 49.7246C124.584 49.8704 124.365 50.071 124.188 50.3262C124.014 50.5768 123.884 50.8662 123.798 51.1943C123.711 51.5179 123.668 51.862 123.668 52.2266ZM138.502 54.0381C138.502 53.8558 138.461 53.6872 138.379 53.5322C138.301 53.3727 138.14 53.2292 137.894 53.1016C137.652 52.9694 137.287 52.8555 136.8 52.7598C136.39 52.6732 136.018 52.5706 135.686 52.4521C135.357 52.3337 135.077 52.1901 134.845 52.0215C134.617 51.8529 134.441 51.6546 134.318 51.4268C134.195 51.1989 134.134 50.9323 134.134 50.627C134.134 50.3353 134.198 50.0596 134.325 49.7998C134.457 49.54 134.642 49.3099 134.879 49.1094C135.12 48.9089 135.41 48.7516 135.747 48.6377C136.084 48.5238 136.46 48.4668 136.875 48.4668C137.467 48.4668 137.973 48.5716 138.393 48.7812C138.812 48.9909 139.133 49.2712 139.356 49.6221C139.58 49.9684 139.691 50.3535 139.691 50.7773H138.427C138.427 50.5723 138.365 50.374 138.242 50.1826C138.124 49.9867 137.948 49.8249 137.716 49.6973C137.488 49.5697 137.208 49.5059 136.875 49.5059C136.524 49.5059 136.239 49.5605 136.021 49.6699C135.806 49.7747 135.649 49.9092 135.549 50.0732C135.453 50.2373 135.405 50.4105 135.405 50.5928C135.405 50.7295 135.428 50.8525 135.474 50.9619C135.524 51.0667 135.61 51.1647 135.733 51.2559C135.856 51.3424 136.03 51.4245 136.253 51.502C136.476 51.5794 136.761 51.6569 137.107 51.7344C137.714 51.8711 138.213 52.0352 138.604 52.2266C138.996 52.418 139.288 52.6527 139.479 52.9307C139.671 53.2087 139.767 53.5459 139.767 53.9424C139.767 54.266 139.698 54.5622 139.562 54.8311C139.429 55.0999 139.236 55.3324 138.98 55.5283C138.73 55.7197 138.429 55.8701 138.078 55.9795C137.732 56.0843 137.342 56.1367 136.909 56.1367C136.257 56.1367 135.706 56.0205 135.255 55.7881C134.804 55.5557 134.462 55.2549 134.229 54.8857C133.997 54.5166 133.881 54.127 133.881 53.7168H135.152C135.171 54.0632 135.271 54.3389 135.453 54.5439C135.635 54.7445 135.859 54.888 136.123 54.9746C136.387 55.0566 136.649 55.0977 136.909 55.0977C137.256 55.0977 137.545 55.0521 137.777 54.9609C138.014 54.8698 138.194 54.7445 138.317 54.585C138.44 54.4255 138.502 54.2432 138.502 54.0381ZM144.497 56.1367C143.982 56.1367 143.515 56.0501 143.096 55.877C142.681 55.6992 142.323 55.4508 142.022 55.1318C141.726 54.8128 141.498 54.4346 141.339 53.9971C141.179 53.5596 141.1 53.0811 141.1 52.5615V52.2744C141.1 51.6729 141.188 51.1374 141.366 50.668C141.544 50.194 141.785 49.793 142.091 49.4648C142.396 49.1367 142.743 48.8883 143.13 48.7197C143.517 48.5511 143.918 48.4668 144.333 48.4668C144.862 48.4668 145.317 48.5579 145.7 48.7402C146.088 48.9225 146.404 49.1777 146.65 49.5059C146.896 49.8294 147.079 50.2122 147.197 50.6543C147.316 51.0918 147.375 51.5703 147.375 52.0898V52.6572H141.852V51.625H146.11V51.5293C146.092 51.2012 146.024 50.8822 145.905 50.5723C145.791 50.2624 145.609 50.0072 145.358 49.8066C145.108 49.6061 144.766 49.5059 144.333 49.5059C144.046 49.5059 143.782 49.5674 143.54 49.6904C143.299 49.8089 143.091 49.9867 142.918 50.2236C142.745 50.4606 142.61 50.75 142.515 51.0918C142.419 51.4336 142.371 51.8278 142.371 52.2744V52.5615C142.371 52.9124 142.419 53.2428 142.515 53.5527C142.615 53.8581 142.758 54.127 142.945 54.3594C143.137 54.5918 143.367 54.7741 143.636 54.9062C143.909 55.0384 144.219 55.1045 144.565 55.1045C145.012 55.1045 145.39 55.0133 145.7 54.8311C146.01 54.6488 146.281 54.4049 146.514 54.0996L147.279 54.708C147.12 54.9495 146.917 55.1797 146.671 55.3984C146.425 55.6172 146.122 55.7949 145.762 55.9316C145.406 56.0684 144.985 56.1367 144.497 56.1367ZM153.377 54.291V48.6035H154.648V56H153.438L153.377 54.291ZM153.616 52.7324L154.143 52.7188C154.143 53.2109 154.09 53.6667 153.985 54.0859C153.885 54.5007 153.721 54.8607 153.493 55.166C153.265 55.4714 152.967 55.7106 152.598 55.8838C152.229 56.0524 151.78 56.1367 151.251 56.1367C150.891 56.1367 150.561 56.0843 150.26 55.9795C149.964 55.8747 149.708 55.7129 149.494 55.4941C149.28 55.2754 149.114 54.9906 148.995 54.6396C148.881 54.2887 148.824 53.8672 148.824 53.375V48.6035H150.089V53.3887C150.089 53.7214 150.125 53.9971 150.198 54.2158C150.276 54.43 150.378 54.6009 150.506 54.7285C150.638 54.8516 150.784 54.9382 150.943 54.9883C151.107 55.0384 151.276 55.0635 151.449 55.0635C151.987 55.0635 152.413 54.9609 152.728 54.7559C153.042 54.5462 153.268 54.266 153.404 53.915C153.546 53.5596 153.616 53.1654 153.616 52.7324ZM163.009 55.0977C163.31 55.0977 163.588 55.0361 163.843 54.9131C164.098 54.79 164.308 54.6214 164.472 54.4072C164.636 54.1885 164.729 53.9401 164.752 53.6621H165.955C165.932 54.0996 165.784 54.5075 165.511 54.8857C165.242 55.2594 164.889 55.5625 164.451 55.7949C164.014 56.0228 163.533 56.1367 163.009 56.1367C162.453 56.1367 161.967 56.0387 161.553 55.8428C161.143 55.6468 160.801 55.3779 160.527 55.0361C160.258 54.6943 160.056 54.3024 159.919 53.8604C159.787 53.4137 159.721 52.9421 159.721 52.4453V52.1582C159.721 51.6615 159.787 51.1921 159.919 50.75C160.056 50.3034 160.258 49.9092 160.527 49.5674C160.801 49.2256 161.143 48.9567 161.553 48.7607C161.967 48.5648 162.453 48.4668 163.009 48.4668C163.588 48.4668 164.093 48.5853 164.526 48.8223C164.959 49.0547 165.299 49.3737 165.545 49.7793C165.796 50.1803 165.932 50.6361 165.955 51.1465H164.752C164.729 50.8411 164.643 50.5654 164.492 50.3193C164.346 50.0732 164.146 49.8773 163.891 49.7314C163.64 49.5811 163.346 49.5059 163.009 49.5059C162.621 49.5059 162.296 49.5833 162.031 49.7383C161.771 49.8887 161.564 50.0938 161.409 50.3535C161.259 50.6087 161.149 50.8936 161.081 51.208C161.017 51.5179 160.985 51.8346 160.985 52.1582V52.4453C160.985 52.7689 161.017 53.0879 161.081 53.4023C161.145 53.7168 161.252 54.0016 161.402 54.2568C161.557 54.512 161.765 54.7171 162.024 54.8721C162.289 55.0225 162.617 55.0977 163.009 55.0977ZM167.042 52.3838V52.2266C167.042 51.6934 167.119 51.1989 167.274 50.7432C167.429 50.2829 167.653 49.8841 167.944 49.5469C168.236 49.2051 168.589 48.9408 169.004 48.7539C169.419 48.5625 169.883 48.4668 170.398 48.4668C170.918 48.4668 171.385 48.5625 171.8 48.7539C172.219 48.9408 172.575 49.2051 172.866 49.5469C173.162 49.8841 173.388 50.2829 173.543 50.7432C173.698 51.1989 173.775 51.6934 173.775 52.2266V52.3838C173.775 52.917 173.698 53.4115 173.543 53.8672C173.388 54.3229 173.162 54.7217 172.866 55.0635C172.575 55.4007 172.221 55.665 171.807 55.8564C171.396 56.0433 170.932 56.1367 170.412 56.1367C169.893 56.1367 169.425 56.0433 169.011 55.8564C168.596 55.665 168.241 55.4007 167.944 55.0635C167.653 54.7217 167.429 54.3229 167.274 53.8672C167.119 53.4115 167.042 52.917 167.042 52.3838ZM168.307 52.2266V52.3838C168.307 52.7529 168.35 53.1016 168.437 53.4297C168.523 53.7533 168.653 54.0404 168.826 54.291C169.004 54.5417 169.225 54.7399 169.489 54.8857C169.754 55.027 170.061 55.0977 170.412 55.0977C170.758 55.0977 171.062 55.027 171.321 54.8857C171.586 54.7399 171.804 54.5417 171.978 54.291C172.151 54.0404 172.281 53.7533 172.367 53.4297C172.458 53.1016 172.504 52.7529 172.504 52.3838V52.2266C172.504 51.862 172.458 51.5179 172.367 51.1943C172.281 50.8662 172.148 50.5768 171.971 50.3262C171.798 50.071 171.579 49.8704 171.314 49.7246C171.055 49.5788 170.749 49.5059 170.398 49.5059C170.052 49.5059 169.747 49.5788 169.482 49.7246C169.223 49.8704 169.004 50.071 168.826 50.3262C168.653 50.5768 168.523 50.8662 168.437 51.1943C168.35 51.5179 168.307 51.862 168.307 52.2266ZM176.626 49.7656V56H175.361V48.6035H176.592L176.626 49.7656ZM178.937 48.5625L178.93 49.7383C178.825 49.7155 178.725 49.7018 178.629 49.6973C178.538 49.6882 178.433 49.6836 178.314 49.6836C178.023 49.6836 177.765 49.7292 177.542 49.8203C177.319 49.9115 177.13 50.0391 176.975 50.2031C176.82 50.3672 176.697 50.5632 176.605 50.791C176.519 51.0143 176.462 51.2604 176.435 51.5293L176.079 51.7344C176.079 51.2878 176.122 50.8685 176.209 50.4766C176.3 50.0846 176.439 49.7383 176.626 49.4375C176.813 49.1322 177.05 48.8952 177.337 48.7266C177.629 48.5534 177.975 48.4668 178.376 48.4668C178.467 48.4668 178.572 48.4782 178.69 48.501C178.809 48.5192 178.891 48.5397 178.937 48.5625ZM181.37 50.0254V58.8438H180.099V48.6035H181.261L181.37 50.0254ZM186.354 52.2402V52.3838C186.354 52.9215 186.29 53.4206 186.162 53.8809C186.035 54.3366 185.848 54.7331 185.602 55.0703C185.36 55.4076 185.062 55.6696 184.706 55.8564C184.351 56.0433 183.943 56.1367 183.482 56.1367C183.013 56.1367 182.598 56.0592 182.238 55.9043C181.878 55.7493 181.573 55.5238 181.322 55.2275C181.072 54.9313 180.871 54.5758 180.721 54.1611C180.575 53.7464 180.475 53.2793 180.42 52.7598V51.9941C180.475 51.4473 180.577 50.9574 180.728 50.5244C180.878 50.0915 181.076 49.7223 181.322 49.417C181.573 49.1071 181.876 48.8724 182.231 48.7129C182.587 48.5488 182.997 48.4668 183.462 48.4668C183.927 48.4668 184.339 48.5579 184.699 48.7402C185.059 48.918 185.362 49.1732 185.608 49.5059C185.854 49.8385 186.039 50.2373 186.162 50.7021C186.29 51.1624 186.354 51.6751 186.354 52.2402ZM185.082 52.3838V52.2402C185.082 51.8711 185.043 51.5247 184.966 51.2012C184.888 50.873 184.768 50.5859 184.604 50.3398C184.444 50.0892 184.239 49.8932 183.988 49.752C183.738 49.6061 183.439 49.5332 183.093 49.5332C182.774 49.5332 182.496 49.5879 182.259 49.6973C182.026 49.8066 181.828 49.9548 181.664 50.1416C181.5 50.3239 181.366 50.5335 181.261 50.7705C181.16 51.0029 181.085 51.2445 181.035 51.4951V53.2656C181.126 53.5846 181.254 53.8854 181.418 54.168C181.582 54.446 181.801 54.6715 182.074 54.8447C182.348 55.0133 182.692 55.0977 183.106 55.0977C183.448 55.0977 183.742 55.027 183.988 54.8857C184.239 54.7399 184.444 54.5417 184.604 54.291C184.768 54.0404 184.888 53.7533 184.966 53.4297C185.043 53.1016 185.082 52.7529 185.082 52.3838ZM187.632 52.3838V52.2266C187.632 51.6934 187.709 51.1989 187.864 50.7432C188.019 50.2829 188.243 49.8841 188.534 49.5469C188.826 49.2051 189.179 48.9408 189.594 48.7539C190.008 48.5625 190.473 48.4668 190.988 48.4668C191.508 48.4668 191.975 48.5625 192.39 48.7539C192.809 48.9408 193.164 49.2051 193.456 49.5469C193.752 49.8841 193.978 50.2829 194.133 50.7432C194.288 51.1989 194.365 51.6934 194.365 52.2266V52.3838C194.365 52.917 194.288 53.4115 194.133 53.8672C193.978 54.3229 193.752 54.7217 193.456 55.0635C193.164 55.4007 192.811 55.665 192.396 55.8564C191.986 56.0433 191.521 56.1367 191.002 56.1367C190.482 56.1367 190.015 56.0433 189.601 55.8564C189.186 55.665 188.83 55.4007 188.534 55.0635C188.243 54.7217 188.019 54.3229 187.864 53.8672C187.709 53.4115 187.632 52.917 187.632 52.3838ZM188.896 52.2266V52.3838C188.896 52.7529 188.94 53.1016 189.026 53.4297C189.113 53.7533 189.243 54.0404 189.416 54.291C189.594 54.5417 189.815 54.7399 190.079 54.8857C190.343 55.027 190.651 55.0977 191.002 55.0977C191.348 55.0977 191.651 55.027 191.911 54.8857C192.175 54.7399 192.394 54.5417 192.567 54.291C192.741 54.0404 192.87 53.7533 192.957 53.4297C193.048 53.1016 193.094 52.7529 193.094 52.3838V52.2266C193.094 51.862 193.048 51.5179 192.957 51.1943C192.87 50.8662 192.738 50.5768 192.561 50.3262C192.387 50.071 192.169 49.8704 191.904 49.7246C191.645 49.5788 191.339 49.5059 190.988 49.5059C190.642 49.5059 190.337 49.5788 190.072 49.7246C189.812 49.8704 189.594 50.071 189.416 50.3262C189.243 50.5768 189.113 50.8662 189.026 51.1943C188.94 51.5179 188.896 51.862 188.896 52.2266Z" fill="#E1E1E6"/>
</svg>
